<svg width="21" height="31" viewBox="0 0 21 31" fill="none" xmlns="http://www.w3.org/2000/svg">
<path fill-rule="evenodd" clip-rule="evenodd" d="M18.1828 17.5668C19.9812 15.6473 20.9999 13.1266 20.9999 10.449C20.9999 4.24464 15.6043 -0.607529 9.33956 0.0618182C4.51072 0.57802 0.413249 4.78324 0.0330552 9.60771C-0.197876 12.5416 0.790012 15.3457 2.71998 17.4638C4.46515 19.377 5.43961 21.7936 5.43961 24.282V25.964C5.43961 28.7456 7.70602 31 10.4997 31C13.2941 31 15.5598 28.746 15.5598 25.964V24.397C15.5598 21.8256 16.4891 19.3752 18.1828 17.5668ZM9.44583 1.05616C15.1194 0.449964 19.9999 4.83886 19.9999 10.449C19.9999 12.8699 19.0797 15.1469 17.453 16.8831C15.5822 18.8807 14.5598 21.5764 14.5598 24.397V25.964C14.5598 28.1925 12.7429 30 10.4997 30C8.25711 30 6.43961 28.1922 6.43961 25.964V24.282C6.43961 21.5393 5.36887 18.8839 3.45896 16.79C1.71328 14.8742 0.820973 12.3414 1.02997 9.68622C1.37232 5.34201 5.09519 1.52124 9.44583 1.05616Z" fill="black"/>
<path d="M6.5 25C6.22386 25 6 24.7761 6 24.5C6 24.2239 6.22386 24 6.5 24H14.5C14.7761 24 15 24.2239 15 24.5C15 24.7761 14.7761 25 14.5 25H6.5Z" fill="black"/>
<path opacity="0.5" fill-rule="evenodd" clip-rule="evenodd" d="M8.687 18.0002C8.656 18.0002 8.62499 17.9922 8.59699 17.9762C8.52199 17.9312 8.48899 17.8392 8.51899 17.7562L10.3841 12.5382L8.12997 11.8842C8.07197 11.8672 8.02497 11.8212 8.00797 11.7632C7.98997 11.7042 8.00297 11.6402 8.04197 11.5922L12.6142 6.06416C12.6682 5.99916 12.7612 5.98116 12.8352 6.02116C12.9092 6.06216 12.9452 6.14916 12.9222 6.23116L11.6041 10.8862L13.8702 11.5442C13.9292 11.5612 13.9752 11.6062 13.9922 11.6662C14.0102 11.7262 13.9962 11.7902 13.9572 11.8372L8.823 17.9372C8.788 17.9782 8.737 18.0002 8.687 18.0002Z" fill="#00D1C1"/>
</svg>
