<svg width="85" height="32" viewBox="0 0 85 32" fill="none" xmlns="http://www.w3.org/2000/svg">
<path d="M28.4855 7.61188L30.9109 5.21361L30.3924 4.70088C26.1437 0.499772 19.2355 0.499772 14.9869 4.70088C10.9223 8.72005 10.755 15.1706 14.4851 19.4048L12.043 21.7865L12.5615 22.2992C16.8102 26.5003 23.7183 26.5003 27.967 22.2992C32.0483 18.28 32.2156 11.8295 28.4855 7.61188ZM16.024 5.74289C19.5032 2.28607 25.0899 2.12067 28.7699 5.23015L27.3815 6.60296C24.4376 4.22123 20.1053 4.38662 17.3621 7.09915C14.6189 9.81168 14.4517 14.112 16.8603 17.0065L15.5055 18.3462C12.3608 14.6909 12.5281 9.18316 16.024 5.74289ZM26.9132 21.2572C23.4173 24.714 17.8472 24.8794 14.1506 21.7534L15.5389 20.3806C18.4828 22.7623 22.8151 22.5969 25.5583 19.8844C28.3015 17.1719 28.4688 12.8715 26.0601 9.97707L27.415 8.63735C30.5764 12.3092 30.4091 17.8169 26.9132 21.2572Z" fill="white"/>
<path d="M49.3776 11.1012H51.5521V12.1432C51.5521 12.474 51.5521 12.7552 51.5521 12.7552C52.6561 10.5554 56.336 10.0757 57.1556 12.7386H57.189C57.9417 11.2666 59.7984 10.5554 61.3707 11.035C62.826 11.4816 63.2441 12.9371 63.2441 14.2934V20.0492H60.986V14.7234C60.986 13.7972 60.7351 12.8544 59.5977 12.9371C58.4937 13.0033 57.7912 13.9791 57.557 14.9715C57.4734 15.3188 57.4567 15.7158 57.4567 16.1293V20.0658H55.1818V14.7234C55.1818 13.731 54.8975 12.8048 53.6931 12.9536C52.6226 13.086 51.9703 14.0287 51.7361 14.988C51.6524 15.3188 51.6357 15.7323 51.6357 16.1293V20.0658H49.3776V11.1012Z" fill="white"/>
<path d="M79.469 18.1641C78.8836 18.1641 78.549 17.916 78.549 16.9401V9.57993V7.59515L76.3076 9.81149V17.2709C76.3076 19.8346 77.8465 20.1489 79.101 20.1489C79.469 20.1489 79.8035 20.0992 79.8035 20.0992V18.1475C79.8035 18.1475 79.6363 18.1641 79.469 18.1641Z" fill="white"/>
<path d="M73.6482 12.6732C72.862 11.3996 71.4235 10.7711 69.9181 10.9199C68.9646 11.0192 67.9443 11.5154 67.4592 12.3754C67.4592 12.3754 67.4592 12.0943 67.4592 11.7635V11.1184H65.4018V24.3172L67.66 22.0843V19.8349C67.66 19.3718 67.66 19.0575 67.66 19.0575C68.4127 20.1491 69.9181 20.4634 71.1559 20.1988C74.4176 19.4876 75.2205 15.1872 73.6482 12.6732ZM69.8512 18.3959C68.4628 18.3959 67.6934 17.1389 67.6098 15.8984C67.5429 14.8564 67.8272 13.6325 68.8141 13.0866C69.6337 12.6401 70.7042 12.7559 71.3566 13.4174C72.7951 14.8564 72.2766 18.3959 69.8512 18.3959Z" fill="white"/>
<path d="M47.2027 11.1017H44.9446V20.0663H47.2027V11.1017Z" fill="white"/>
<path d="M42.9207 15.8655C42.5695 14.3108 41.0808 13.5499 39.7092 12.9876C38.806 12.6072 37.0162 12.1441 37.0664 10.9036C37.1165 9.66309 38.5718 9.34884 39.5754 9.51424C40.1441 9.61347 40.6961 9.82849 41.1812 10.1427L42.6866 8.65417C41.3317 7.36406 38.9732 7.04981 37.2671 7.66178C35.4271 8.32337 34.1559 10.3578 35.009 12.2433C35.6279 13.6326 37.2336 14.2115 38.5383 14.7739C39.5419 15.2039 41.315 15.9648 40.5121 17.3706C39.9434 18.3796 38.4881 18.2638 37.5514 17.933C37.0329 17.7511 36.5144 17.4699 36.0628 17.1391L34.5573 18.6277C35.8788 19.9508 38.0365 20.4967 39.843 20.1659C41.9004 19.802 43.3891 17.9495 42.9207 15.8655Z" fill="white"/>
</svg>
